<?xml version="1.0" encoding="UTF-8"?>
<svg viewBox="0 0 94 41" xmlns="http://www.w3.org/2000/svg">
<title>Group 3</title>
<desc>Created with Sketch.</desc>
<g>
<title>background</title>
<rect x="-1" y="-1" width="582" height="402" fill="none"/>
</g>
<g>
<title>Layer 1</title>
<g fill="none" fill-rule="evenodd">
<path d="m1.2435 22.746c0.54171 0.37864 1.8811 1.6705 4.0479 1.6705 2.232 0 3.2841-1.229 3.2841-2.6465 0-3.5287-8.384-1.7015-8.384-7.1838 0-2.4572 2.0719-4.6312 5.7374-4.6312 1.8811 0 3.4434 0.50433 5.0058 1.859-0.44673 0.75649-1.1164 1.575-1.9447 1.0715-0.6061-0.37785-1.4979-0.85035-2.9967-0.85035-1.9133 0-3.1239 1.0397-3.1239 2.3307 0 3.2455 8.384 1.7651 8.384 6.8999 0 2.9297-2.1684 5.1665-6.1206 5.1665-1.9447 0-3.9215-0.91319-5.1329-1.8272l1.2436-1.859v-5e-5z" fill="#981B1E"/>
<path d="m15.944 22.061c0 1.4466 1.1631 2.1072 2.6097 2.1072 1.9809 0 3.2384-1.164 4.5278-2.5161v-2.7352c-0.91143-0.37793-1.7609-0.5669-2.4842-0.5669-3.113 0-4.6532 1.6356-4.6532 3.711h-1e-4zm7.1374-6.1001c0-2.4843-1.1004-3.742-3.1448-3.742-1.6029 0-2.5469 0.53434-3.2384 1.006-0.91143 0.53434-1.7609 0.66058-2.4525-0.37714l-0.21992-0.37714c1.1004-1.2584 3.93-2.5161 6.226-2.5161 3.6156 0 5.5655 2.4534 5.5655 6.0064v10.187h-1.2576c-0.53511 0-0.81775-0.12465-0.97495-0.65979l-0.3144-1.4776c-1.6665 1.5093-3.113 2.4208-5.5345 2.4208-2.4842 0-4.496-1.3521-4.496-4.2446 0-2.8615 2.358-5.6293 7.0747-5.6293 0.81696 0 1.7609 0.158 2.7669 0.50338v-1.1004l-3e-5 4.9e-4z" fill="#981B1E"/>
<path d="m37.463 16.11c0-2.5967-1.0697-3.8789-3.1118-3.8789-1.4266 0-2.6265 0.80136-3.6307 2.1159v12.085h-2.9179v-16.221h1.8481c0.38959 0 0.55165 0.12789 0.64823 0.64028l0.25864 1.572c1.1999-1.4109 2.6592-2.4688 4.6366-2.4688 3.6299 0 5.1858 3.6547 5.1858 6.1551v10.322h-0.64823c-1.3619 0-2.2688-0.44763-2.2688-2.2438v-8.0784l6e-5 6.2e-4z" fill="#981B1E"/>
<path d="m59.634 22.061c0 1.4466 1.1638 2.1072 2.6095 2.1072 1.9807 0 3.239-1.164 4.5283-2.5161v-2.7352c-0.91217-0.37793-1.7616-0.5669-2.4848-0.5669-3.1128 0-4.6529 1.6356-4.6529 3.711h-1e-4zm7.1378-6.1001c0-2.4843-1.1011-3.742-3.1446-3.742-1.6028 0-2.5468 0.53434-3.2382 1.006-0.91138 0.53434-1.7608 0.66058-2.4531-0.37714l-0.21911-0.37714c1.1003-1.2584 3.9297-2.5161 6.2248-2.5161 3.6153 0 5.5659 2.4534 5.5659 6.0064v10.187h-1.2583c-0.53428 0-0.8177-0.12465-0.97489-0.65979l-0.31358-1.4776c-1.6672 1.5093-3.1128 2.4208-5.5341 2.4208-2.4841 0-4.4965-1.3521-4.4965-4.2446 0-2.8615 2.3578-5.6293 7.0743-5.6293 0.8177 0 1.7616 0.158 2.7675 0.50338v-1.1004l-1.2e-4 4.9e-4z" fill="#981B1E"/>
<path d="m94 26.432h-0.63496c-1.3332 0-2.2223-0.44842-2.2223-2.2437v-8.078c0-2.565-1.1432-3.8787-3.2069-3.8787-1.9049 0-3.4618 1.2821-3.4618 3.8787v10.322h-2.8573v-10.322c0-2.5966-1.0478-3.8787-3.0481-3.8787-1.3966 0-2.5719 0.80051-3.5564 2.115v12.085h-2.8573v-16.221h1.8103c0.38001 0 0.53955 0.12789 0.63496 0.64106l0.25334 1.5711c1.1753-1.4108 2.604-2.4687 4.5409-2.4687 2.159 0 3.461 1.3153 4.0647 3.3664 0.95163-2.34 3.0473-3.3664 5.1438-3.3664 3.3969 0 5.3971 2.1798 5.3971 6.1556v10.322l-4e-5 3.4e-4z" fill="#981B1E"/>
<path d="m49.459 11.679c2.575 0 3.9877 1.7207 3.9877 4.3962 0 2.3578-1.3818 4.142-3.9877 4.142-2.5432 0-3.956-1.7842-3.956-4.142 0-2.6755 1.3818-4.3962 3.956-4.3962m-0.18789 13.126c-2.1358 0-3.3606-0.255-3.3606-1.4657 0-0.41428 0.31473-0.89211 0.94262-1.3056 0.81656 0.28637 1.6958 0.44565 2.6059 0.44565 3.9877 0 6.8449-2.6755 6.8449-6.4989 0-1.4343-0.43999-2.6763-1.1614-3.7277 4.0757-2.2982 1.0362-7.0524-1.2605-6.1369-1.2114 0.48426-0.63026 2.3449 0.64929 2.0963 0.01823-0.00322 0.03567-0.00724 0.05391-0.00965 0.49866-0.08366 0.92676 0.33625 0.87682 0.84625-0.15459 1.6088-1.4548 1.8083-2.6114 1.1761-7.9e-4 0.00161-0.00238 0.00241-0.00317 0.00402-1.0195-0.55183-2.1817-0.87602-3.3883-0.87602-4.0186 0-6.8758 2.6128-6.8758 6.6276 0 2.1341 0.97353 3.8548 2.4489 5.0019-1.1931 0.6363-1.9154 1.847-1.9154 2.9305 0 2.2942 2.3554 3.4083 6.0917 3.4083 2.9507 0 5.4313 0.3821 5.4313 2.4857 0 1.5614-1.821 2.8034-4.9295 2.8034-3.4534 0-5.0865-1.0514-5.1808-2.3891 0-0.89211-0.72222-1.9113-2.3546-1.9113h-0.47091v1.7834c0 2.5492 2.6059 4.907 7.9437 4.907 5.0231 0 7.9437-2.6763 7.9437-5.384 0-4.0463-4.1447-4.8113-8.3202-4.8113" fill="#981B1E"/>
<path d="m72.811 34.341c-0.3649 0-0.65624-0.30054-0.65624-0.65338 0-0.37472 0.29134-0.6648 0.65624-0.6648s0.6677 0.29008 0.6677 0.6648c0 0.35285-0.30281 0.65338-0.6677 0.65338" fill="#282764"/>
<path d="m79.437 33.504c-0.50088 0.54423-1.246 0.83685-2.1519 0.83685-1.3526 0-2.4819-0.97804-2.4819-2.6415 0-1.5325 1.0018-2.6312 2.6419-2.6312 0.63923 0 1.3743 0.22164 1.7468 0.61443l-0.08501 0.15144c-0.22336 0.39358-0.52172 0.28237-0.68174 0.19166-0.20252-0.12068-0.49005-0.26186-0.92676-0.26186-1.0651 0-1.7252 0.75561-1.7252 1.9356 0 1.2399 0.71341 1.9458 1.6827 1.9458 0.60756 0 1.1184-0.38333 1.5127-0.68542l0.46838 0.54423 3e-5 -3e-5z" fill="#282764"/>
<path d="m84.385 31.699c0-1.2099-0.53695-1.9253-1.6332-1.9253-1.1074 0-1.6555 0.71539-1.6555 1.9253 0 1.2099 0.5481 1.9458 1.6555 1.9458 1.0962 0 1.6332-0.73589 1.6332-1.9458m1.0096 0c0 1.613-1.031 2.6415-2.6427 2.6415-1.6443 0-2.653-1.0285-2.653-2.6415 0-1.6027 1.0087-2.6312 2.653-2.6312 1.6117 0 2.6427 1.0285 2.6427 2.6312" fill="#282764"/>
<path d="m94 34.341h-0.21115c-0.44465 0-0.74109-0.14366-0.74109-0.71828v-2.585c0-0.8202-0.38089-1.2415-1.069-1.2415-0.6351 0-1.1534 0.4109-1.1534 1.2415v3.3033h-0.95223v-3.3033c0-0.83064-0.34943-1.2415-1.0168-1.2415-0.46535 0-0.85701 0.25681-1.1857 0.67735v3.8675h-0.95223v-5.1909h0.60363c0.12669 0 0.17968 0.04093 0.21115 0.20545l0.08529 0.50239c0.39166-0.45103 0.86777-0.78971 1.5128-0.78971 0.72039 0 1.1543 0.42053 1.3555 1.077 0.31796-0.74878 1.0152-1.077 1.714-1.077 1.1327 0 1.7993 0.69741 1.7993 1.9694v3.3033h-7e-5z" fill="#282764"/>
</g>
</g>
</svg>
